<svg width="167" height="36" viewBox="0 0 167 36" fill="none" xmlns="http://www.w3.org/2000/svg">
<circle cx="18" cy="18" r="16" stroke="#3758F9" stroke-width="4"/>
<path d="M17.7231 18.277L32.6769 18.277" stroke="#3758F9" stroke-opacity="0.71" stroke-width="4" stroke-linecap="round"/>
<path d="M12.1846 3.32312L17.6938 18.3813" stroke="#3758F9" stroke-opacity="0.71" stroke-width="4" stroke-linecap="round"/>
<path d="M56.786 14.7235C56.735 14.8085 56.6783 14.8737 56.616 14.919C56.5593 14.9587 56.4885 14.9785 56.4035 14.9785C56.3072 14.9785 56.1938 14.9303 56.0635 14.834C55.9332 14.7377 55.7688 14.6328 55.5705 14.5195C55.3778 14.4005 55.1427 14.2928 54.865 14.1965C54.593 14.1002 54.2615 14.052 53.8705 14.052C53.5022 14.052 53.1763 14.103 52.893 14.205C52.6153 14.3013 52.3802 14.4345 52.1875 14.6045C52.0005 14.7745 51.8588 14.9757 51.7625 15.208C51.6662 15.4347 51.618 15.6812 51.618 15.9475C51.618 16.2875 51.7002 16.5708 51.8645 16.7975C52.0345 17.0185 52.2555 17.2083 52.5275 17.367C52.8052 17.5257 53.1168 17.6645 53.4625 17.7835C53.8138 17.8968 54.1708 18.0158 54.5335 18.1405C54.9018 18.2652 55.2588 18.4068 55.6045 18.5655C55.9558 18.7185 56.2675 18.914 56.5395 19.152C56.8172 19.39 57.0382 19.6818 57.2025 20.0275C57.3725 20.3732 57.4575 20.7982 57.4575 21.3025C57.4575 21.8352 57.3668 22.3367 57.1855 22.807C57.0042 23.2717 56.7378 23.6768 56.3865 24.0225C56.0408 24.3682 55.613 24.6402 55.103 24.8385C54.5987 25.0368 54.0235 25.136 53.3775 25.136C52.5842 25.136 51.8645 24.9943 51.2185 24.711C50.5725 24.422 50.02 24.0338 49.561 23.5465L50.037 22.7645C50.0823 22.7022 50.1362 22.6512 50.1985 22.6115C50.2665 22.5662 50.3402 22.5435 50.4195 22.5435C50.4932 22.5435 50.5753 22.5747 50.666 22.637C50.7623 22.6937 50.87 22.7673 50.989 22.858C51.108 22.9487 51.244 23.0478 51.397 23.1555C51.55 23.2632 51.7228 23.3623 51.9155 23.453C52.1138 23.5437 52.3377 23.6202 52.587 23.6825C52.8363 23.7392 53.1168 23.7675 53.4285 23.7675C53.8195 23.7675 54.168 23.7137 54.474 23.606C54.78 23.4983 55.0378 23.3482 55.2475 23.1555C55.4628 22.9572 55.6272 22.722 55.7405 22.45C55.8538 22.178 55.9105 21.8748 55.9105 21.5405C55.9105 21.1722 55.8255 20.8718 55.6555 20.6395C55.4912 20.4015 55.273 20.2032 55.001 20.0445C54.729 19.8858 54.4173 19.7527 54.066 19.645C53.7147 19.5317 53.3577 19.4183 52.995 19.305C52.6323 19.186 52.2753 19.05 51.924 18.897C51.5727 18.744 51.261 18.5457 50.989 18.302C50.717 18.0583 50.496 17.7552 50.326 17.3925C50.1617 17.0242 50.0795 16.5708 50.0795 16.0325C50.0795 15.6018 50.1617 15.1853 50.326 14.783C50.496 14.3807 50.7397 14.0237 51.057 13.712C51.38 13.4003 51.7738 13.151 52.2385 12.964C52.7088 12.777 53.2472 12.6835 53.8535 12.6835C54.5335 12.6835 55.1512 12.7912 55.7065 13.0065C56.2675 13.2218 56.7605 13.5335 57.1855 13.9415L56.786 14.7235ZM72.4595 12.8195V25H71.0145V16.0495C71.0145 15.9305 71.0173 15.803 71.023 15.667C71.0343 15.531 71.0456 15.3922 71.057 15.2505L66.875 22.8665C66.7446 23.1215 66.5463 23.249 66.28 23.249H66.042C65.7756 23.249 65.5773 23.1215 65.447 22.8665L61.18 15.2165C61.214 15.5168 61.231 15.7945 61.231 16.0495V25H59.786V12.8195H61.0015C61.1488 12.8195 61.2621 12.8337 61.3415 12.862C61.4208 12.8903 61.4973 12.9697 61.571 13.1L65.7785 20.597C65.8465 20.733 65.9116 20.8747 65.974 21.022C66.042 21.1693 66.1043 21.3195 66.161 21.4725C66.2176 21.3195 66.2771 21.1693 66.3395 21.022C66.4018 20.869 66.4698 20.7245 66.5435 20.5885L70.6745 13.1C70.7425 12.9697 70.8161 12.8903 70.8955 12.862C70.9805 12.8337 71.0966 12.8195 71.244 12.8195H72.4595ZM82.0426 20.478L80.1301 15.5225C80.0734 15.3752 80.0139 15.2052 79.9516 15.0125C79.8892 14.8142 79.8297 14.6045 79.7731 14.3835C79.6541 14.8425 79.5322 15.225 79.4076 15.531L77.4951 20.478H82.0426ZM85.4766 25H84.2016C84.0542 25 83.9352 24.9632 83.8446 24.8895C83.7539 24.8158 83.6859 24.7223 83.6406 24.609L82.5016 21.668H77.0361L75.8971 24.609C75.8631 24.711 75.7979 24.8017 75.7016 24.881C75.6052 24.9603 75.4862 25 75.3446 25H74.0696L78.9401 12.8195H80.6061L85.4766 25ZM90.4534 18.7185C90.9294 18.7185 91.3488 18.6618 91.7114 18.5485C92.0798 18.4295 92.3858 18.2652 92.6294 18.0555C92.8788 17.8402 93.0658 17.5852 93.1904 17.2905C93.3151 16.9958 93.3774 16.67 93.3774 16.313C93.3774 15.5877 93.1394 15.0408 92.6634 14.6725C92.1874 14.3042 91.4734 14.12 90.5214 14.12H88.7194V18.7185H90.4534ZM96.0804 25H94.6184C94.3181 25 94.0971 24.8838 93.9554 24.6515L90.7934 20.2995C90.6971 20.1635 90.5923 20.0672 90.4789 20.0105C90.3713 19.9482 90.2013 19.917 89.9689 19.917H88.7194V25H87.0789V12.8195H90.5214C91.2921 12.8195 91.9579 12.8988 92.5189 13.0575C93.0799 13.2105 93.5418 13.4343 93.9044 13.729C94.2728 14.0237 94.5448 14.3807 94.7204 14.8C94.8961 15.2137 94.9839 15.6783 94.9839 16.194C94.9839 16.6247 94.9159 17.027 94.7799 17.401C94.6439 17.775 94.4456 18.1122 94.1849 18.4125C93.9299 18.7072 93.6154 18.9593 93.2414 19.169C92.8731 19.3787 92.4538 19.5373 91.9834 19.645C92.1931 19.764 92.3744 19.9368 92.5274 20.1635L96.0804 25ZM105.575 14.205H101.631V25H99.9907V14.205H96.0382V12.8195H105.575V14.205ZM105.86 19.2625H110.059V20.546H105.86V19.2625ZM121.213 22.484C121.304 22.484 121.383 22.5208 121.451 22.5945L122.105 23.3C121.607 23.878 121 24.3285 120.286 24.6515C119.578 24.9745 118.72 25.136 117.711 25.136C116.838 25.136 116.045 24.9858 115.331 24.6855C114.617 24.3795 114.008 23.9545 113.503 23.4105C112.999 22.8608 112.608 22.2035 112.33 21.4385C112.053 20.6735 111.914 19.832 111.914 18.914C111.914 17.996 112.058 17.1545 112.347 16.3895C112.636 15.6245 113.042 14.9672 113.563 14.4175C114.09 13.8678 114.719 13.4428 115.45 13.1425C116.181 12.8365 116.988 12.6835 117.872 12.6835C118.739 12.6835 119.504 12.8223 120.167 13.1C120.83 13.3777 121.414 13.7545 121.918 14.2305L121.374 14.987C121.34 15.0437 121.295 15.0918 121.238 15.1315C121.187 15.1655 121.117 15.1825 121.026 15.1825C120.924 15.1825 120.799 15.1287 120.652 15.021C120.505 14.9077 120.312 14.783 120.074 14.647C119.836 14.511 119.538 14.3892 119.181 14.2815C118.824 14.1682 118.385 14.1115 117.864 14.1115C117.235 14.1115 116.66 14.222 116.138 14.443C115.617 14.6583 115.167 14.9728 114.787 15.3865C114.413 15.8002 114.121 16.3045 113.911 16.8995C113.702 17.4945 113.597 18.166 113.597 18.914C113.597 19.6733 113.705 20.3505 113.92 20.9455C114.141 21.5405 114.438 22.0448 114.812 22.4585C115.192 22.8665 115.637 23.1782 116.147 23.3935C116.663 23.6088 117.218 23.7165 117.813 23.7165C118.176 23.7165 118.501 23.6967 118.79 23.657C119.085 23.6117 119.354 23.5437 119.598 23.453C119.847 23.3623 120.077 23.249 120.286 23.113C120.502 22.9713 120.714 22.8042 120.924 22.6115C121.02 22.5265 121.117 22.484 121.213 22.484ZM130.928 23.6145V25H124.017V12.8195H125.658V23.6145H130.928ZM143.439 18.914C143.439 19.8263 143.295 20.665 143.006 21.43C142.717 22.1893 142.309 22.8438 141.782 23.3935C141.255 23.9432 140.62 24.371 139.878 24.677C139.141 24.9773 138.325 25.1275 137.43 25.1275C136.535 25.1275 135.719 24.9773 134.982 24.677C134.245 24.371 133.613 23.9432 133.086 23.3935C132.559 22.8438 132.151 22.1893 131.862 21.43C131.573 20.665 131.429 19.8263 131.429 18.914C131.429 18.0017 131.573 17.1658 131.862 16.4065C132.151 15.6415 132.559 14.9842 133.086 14.4345C133.613 13.8792 134.245 13.4485 134.982 13.1425C135.719 12.8365 136.535 12.6835 137.43 12.6835C138.325 12.6835 139.141 12.8365 139.878 13.1425C140.62 13.4485 141.255 13.8792 141.782 14.4345C142.309 14.9842 142.717 15.6415 143.006 16.4065C143.295 17.1658 143.439 18.0017 143.439 18.914ZM141.748 18.914C141.748 18.166 141.646 17.4945 141.442 16.8995C141.238 16.3045 140.949 15.803 140.575 15.395C140.201 14.9813 139.748 14.664 139.215 14.443C138.682 14.222 138.087 14.1115 137.43 14.1115C136.778 14.1115 136.186 14.222 135.653 14.443C135.121 14.664 134.665 14.9813 134.285 15.395C133.911 15.803 133.622 16.3045 133.418 16.8995C133.214 17.4945 133.112 18.166 133.112 18.914C133.112 19.662 133.214 20.3335 133.418 20.9285C133.622 21.5178 133.911 22.0193 134.285 22.433C134.665 22.841 135.121 23.1555 135.653 23.3765C136.186 23.5918 136.778 23.6995 137.43 23.6995C138.087 23.6995 138.682 23.5918 139.215 23.3765C139.748 23.1555 140.201 22.841 140.575 22.433C140.949 22.0193 141.238 21.5178 141.442 20.9285C141.646 20.3335 141.748 19.662 141.748 18.914ZM154.35 22.484C154.44 22.484 154.52 22.5208 154.588 22.5945L155.242 23.3C154.743 23.878 154.137 24.3285 153.423 24.6515C152.715 24.9745 151.856 25.136 150.848 25.136C149.975 25.136 149.182 24.9858 148.468 24.6855C147.754 24.3795 147.144 23.9545 146.64 23.4105C146.136 22.8608 145.745 22.2035 145.467 21.4385C145.189 20.6735 145.051 19.832 145.051 18.914C145.051 17.996 145.195 17.1545 145.484 16.3895C145.773 15.6245 146.178 14.9672 146.7 14.4175C147.227 13.8678 147.856 13.4428 148.587 13.1425C149.318 12.8365 150.125 12.6835 151.009 12.6835C151.876 12.6835 152.641 12.8223 153.304 13.1C153.967 13.3777 154.551 13.7545 155.055 14.2305L154.511 14.987C154.477 15.0437 154.432 15.0918 154.375 15.1315C154.324 15.1655 154.253 15.1825 154.163 15.1825C154.061 15.1825 153.936 15.1287 153.789 15.021C153.641 14.9077 153.449 14.783 153.211 14.647C152.973 14.511 152.675 14.3892 152.318 14.2815C151.961 14.1682 151.522 14.1115 151.001 14.1115C150.372 14.1115 149.796 14.222 149.275 14.443C148.754 14.6583 148.303 14.9728 147.924 15.3865C147.55 15.8002 147.258 16.3045 147.048 16.8995C146.838 17.4945 146.734 18.166 146.734 18.914C146.734 19.6733 146.841 20.3505 147.057 20.9455C147.278 21.5405 147.575 22.0448 147.949 22.4585C148.329 22.8665 148.774 23.1782 149.284 23.3935C149.799 23.6088 150.355 23.7165 150.95 23.7165C151.312 23.7165 151.638 23.6967 151.927 23.657C152.222 23.6117 152.491 23.5437 152.735 23.453C152.984 23.3623 153.213 23.249 153.423 23.113C153.638 22.9713 153.851 22.8042 154.061 22.6115C154.157 22.5265 154.253 22.484 154.35 22.484ZM158.795 18.1575H159.415C159.63 18.1575 159.803 18.132 159.934 18.081C160.064 18.0243 160.183 17.9308 160.291 17.8005L164.345 13.2105C164.458 13.0632 164.577 12.9612 164.702 12.9045C164.827 12.8478 164.98 12.8195 165.161 12.8195H166.555L161.914 18.064C161.801 18.2 161.69 18.3133 161.583 18.404C161.481 18.489 161.37 18.5598 161.251 18.6165C161.404 18.6675 161.543 18.744 161.668 18.846C161.792 18.9423 161.914 19.0698 162.033 19.2285L166.878 25H165.45C165.342 25 165.249 24.9943 165.17 24.983C165.096 24.966 165.031 24.9433 164.974 24.915C164.917 24.881 164.866 24.8442 164.821 24.8045C164.781 24.7592 164.742 24.7082 164.702 24.6515L160.503 19.815C160.39 19.6733 160.268 19.5742 160.138 19.5175C160.007 19.4552 159.809 19.424 159.543 19.424H158.795V25H157.154V12.8195H158.795V18.1575Z" fill="#111928"/>
</svg>
